<?xml version="1.0" encoding="UTF-8"?>
<svg width="56px" height="56px" viewBox="0 0 56 56" version="1.1" xmlns="http://www.w3.org/2000/svg" xmlns:xlink="http://www.w3.org/1999/xlink">
    <title>S2</title>
    <g id="S2" stroke="none" stroke-width="1" fill="none" fill-rule="evenodd">
        <g transform="translate(0, 7)" fill="#000000" fill-rule="nonzero" id="Path">
            <path d="M56,11.7894737 C54.1787463,12.9409595 51.4888712,15.1825524 50.1086535,16.4291229 C41.9840889,23.2216937 36.6940204,27.4916651 29.6000605,35.5846936 L24.333079,41.2631579 L11.7894737,20.8978331 C13.9875385,22.6890332 22.3832317,29.6395097 24.6440983,30.7909955 L31.929113,25.1615095 C37.0160629,21.5151379 50.4734372,13.1328738 56,11.7894737 Z"></path>
            <path d="M13.7876917,21.4365453 C14.0433803,21.6259344 16.4460657,23.3895582 16.7017544,23.5789474 C14.7201672,18.0866624 11.2044479,12.5943775 6.2185188,7.85964912 C4.55654243,7.85964912 1.72589854,7.85964912 0,7.85964912 C6.39221682,12.4049884 10.3358946,16.1336495 13.7876917,21.4365453 Z"></path>
            <path d="M18.671238,24.0682398 C18.8622249,24.2619076 20.4405921,25.3501919 20.6315789,25.5438596 C20.1884986,17.2323259 17.6644978,9.72053248 11.7297893,2.94736842 C10.1382321,2.94736842 6.50383792,2.94736842 4.9122807,2.94736842 C11.7241456,9.3384047 16.6943813,16.8780118 18.671238,24.0682398 Z"></path>
            <path d="M21.9815718,26.7241818 C22.7407621,27.3603457 23.9662486,28.0459133 24.5989073,28.4912281 C26.2438198,20.4119465 25.1007195,12.1983575 20.7353748,4.62800704 C28.137481,4.50077426 35.1146773,4.11907592 42.4535176,3.99184314 C44.0984301,7.68159376 45.0474181,11.6258099 45.3004816,15.6972589 C45.9331402,15.379177 47.4444264,14.6555832 48.1403509,14.3375012 C47.8240216,10.1388195 46.7771654,5.21654398 44.5628601,0 C34.4403217,0 21.9120121,0 11.7894737,0 C18.3691237,7.82481597 22.5509645,17.8815036 21.9815718,26.7241818 Z"></path>
        </g>
    </g>
</svg>