<?xml version="1.0" encoding="UTF-8"?>
<svg width="64px" height="64px" viewBox="0 0 64 64" version="1.1" xmlns="http://www.w3.org/2000/svg" xmlns:xlink="http://www.w3.org/1999/xlink">
    <title>GitHub</title>
    <g id="GitHub" stroke="none" stroke-width="1" fill="none" fill-rule="evenodd">
        <path d="M43.3797781,58.1027933 L43.3797781,44.9101812 C43.3797781,43.7439543 43.1198837,42.6384134 42.6647386,41.6397326 C43.7531291,41.419416 44.8415196,41.1674371 45.9259523,40.8468566 C49.2597254,39.8626878 54.0446858,35.7822128 55.4589338,31.7927669 C57.0262161,27.3653263 57.0262161,22.8745611 55.4589338,18.4471205 L55.4576145,18.4458012 C55.1766119,17.6502867 54.7491713,16.8481759 54.1409919,15.9814213 C55.2597254,11.8204714 54.4747649,8.34026033 54.4378256,8.1779912 L53.9562953,6.11466667 L51.8375618,6.13973263 C51.6396726,6.14237115 47.2465328,6.22284609 42.9668494,8.7188883 C38.0132889,7.75055585 32.9190906,7.75055585 27.9655301,8.7188883 C23.687166,6.22284609 19.2940262,6.14237115 19.0948177,6.13973263 L16.9734457,6.11466667 L16.4919153,8.1779912 C16.454976,8.34026033 15.6700156,11.8204714 16.7887491,15.9814213 C16.1805697,16.8481759 15.7531291,17.651606 15.4708072,18.4471205 C13.9048441,22.8745611 13.9048441,27.3653263 15.4721264,31.7940862 C16.8837359,35.7822128 21.6686963,39.8626878 25.0037887,40.8468566 C26.0882214,41.1674371 27.1766119,41.419416 28.2650024,41.6397326 C27.793648,42.6656287 27.5492971,43.7811829 27.5486436,44.9101812 L27.5486436,46.6001548 C27.4668494,46.6476482 27.3810974,46.6859068 27.3019417,46.742635 C26.9206752,47.0209991 23.5169813,49.3376218 20.0394087,46.8613685 C18.8124958,45.6133474 18.2109127,44.6990994 17.6304378,43.8151944 C16.3270077,41.8363026 15.2016779,40.4035849 11.5776673,38.59092 C10.2738236,37.9391802 8.68850994,38.467815 8.03677022,39.7716588 C7.3850305,41.0755025 7.91366526,42.6608161 9.217509,43.3125558 C11.8441581,44.6252208 12.3058995,45.3244292 13.2214668,46.717569 C13.9008863,47.747912 14.7452135,49.0315532 16.4470605,50.7334002 L16.7307016,50.9787828 C18.9628916,52.6542445 21.278195,53.2518698 23.3969285,53.2518698 C24.8136759,53.2444745 26.2184035,52.9913824 27.5486436,52.5038487 L27.5486436,58.1146667 L43.3797781,58.1027933 Z" id="Path" fill="#000000" fill-rule="nonzero"></path>
    </g>
</svg>