<?xml version="1.0" encoding="UTF-8"?>
<svg width="64px" height="64px" viewBox="0 0 64 64" version="1.1" xmlns="http://www.w3.org/2000/svg" xmlns:xlink="http://www.w3.org/1999/xlink">
    <title>LinkedIn</title>
    <g id="LinkedIn" stroke="none" stroke-width="1" fill="none" fill-rule="evenodd">
        <path d="M45.3333333,5.33333333 L18.6666667,5.33333333 C11.3333333,5.33333333 5.33333333,11.3333333 5.33333333,18.6666667 L5.33333333,45.3333333 C5.33333333,52.6666667 11.3333333,58.6666667 18.6666667,58.6666667 L45.3333333,58.6666667 C52.6666667,58.6666667 58.6666667,52.6666667 58.6666667,45.3333333 L58.6666667,18.6666667 C58.6666667,11.3333333 52.6666667,5.33333333 45.3333333,5.33333333 Z M22.6666667,46.6666667 L17.3333333,46.6666667 L17.3333333,26.6666667 L22.6666667,26.6666667 L22.6666667,46.6666667 Z M20,22.6666667 C18.5333333,22.6666667 17.3333333,21.4666667 17.3333333,20 C17.3333333,18.5333333 18.5333333,17.3333333 20,17.3333333 C21.4666667,17.3333333 22.6666667,18.5333333 22.6666667,20 C22.6666667,21.4666667 21.4666667,22.6666667 20,22.6666667 Z M46.6666667,46.6666667 L41.3333333,46.6666667 L41.3333333,36.6666667 C41.3333333,33.3333333 40,31.8666667 37.3333333,31.8666667 L32,32 L32,46.6666667 L26.6666667,46.6666667 L26.6666667,26.6666667 L37.3333333,26.4 C41.8666667,26.4 46.6666667,29.0666667 46.6666667,36.5333333 L46.6666667,46.6666667 Z" id="Shape" fill="#000000" fill-rule="nonzero"></path>
    </g>
</svg>