<?xml version="1.0" encoding="UTF-8"?>
<svg width="64px" height="64px" viewBox="0 0 64 64" version="1.1" xmlns="http://www.w3.org/2000/svg" xmlns:xlink="http://www.w3.org/1999/xlink">
    <title>Twittter</title>
    <g id="Twittter" stroke="none" stroke-width="1" fill="none" fill-rule="evenodd">
        <path d="M43.7843524,7.33733333 C37.1098894,7.33733333 31.6991681,12.7386814 31.6991681,19.401582 C31.6991681,19.7155479 31.1156866,19.8988131 30.0953054,19.8988131 C26.1930945,19.8988131 15.9110106,17.2137649 7.52879966,8.84465408 C4.5075036,14.8767784 2.99614401,29.9585099 22.6367031,40.5154378 C15.8327387,46.6697389 8.20763066,48.6174644 4.02933333,48.618885 C4.19156967,48.8547147 4.32961288,49.1019096 4.50465735,49.3306359 C8.08666497,54.0003469 15.0158645,56.3373333 22.534238,56.3373333 C29.921684,56.3373333 37.8769572,54.0813245 43.7871986,49.5636242 C52.7841999,42.6876276 55.8723829,31.4658306 55.8723829,19.401582 L55.8723829,17.8928406 L60.0293333,8.79208965 L51.1575671,9.85474367 C49.0472889,8.22295583 46.4536697,7.33733333 43.7843524,7.33733333 Z" id="Path" fill="#000000" fill-rule="nonzero"></path>
    </g>
</svg>